HIERARCHY
ROOT pelvis
{
  OFFSET 0 100 0
  CHANNELS 6 Xposition Yposition Zposition Zrotation Xrotation Yrotation
  JOINT pelvis_right_femur
  {
    OFFSET -10.78128 -3.44521 -0.5502486
    CHANNELS 3 Zrotation Xrotation Yrotation
    JOINT right_femur_tibia
    {
      OFFSET -0.8047443 -44.0398 -0.1307829
      CHANNELS 3 Zrotation Xrotation Yrotation
      JOINT right_tibia_foot
      {
        OFFSET 3.006224 -47.83518 -5
        CHANNELS 3 Zrotation Xrotation Yrotation
        End Site
        {
          OFFSET 0 -5 15
        }
      }
    }
  }
  JOINT pelvis_left_femur
  {
    OFFSET 10.78128 -3.44521 -0.5502486
    CHANNELS 3 Zrotation Xrotation Yrotation
    JOINT left_femur_tibia
    {
      OFFSET 0.8047443 -44.0398 -0.1307829
      CHANNELS 3 Zrotation Xrotation Yrotation
      JOINT left_tibia_foot
      {
        OFFSET -4.370144 -48.10324 -4.275266
        CHANNELS 3 Zrotation Xrotation Yrotation
        End Site
        {
          OFFSET 0 -5 15
        }
      }
    }
  }
  JOINT pelvis_spine1
  {
    OFFSET 0 6.468898 -3.129235
    CHANNELS 3 Zrotation Xrotation Yrotation
    JOINT spine1
    {
      OFFSET 0 23.15396 4.99043
      CHANNELS 3 Zrotation Xrotation Yrotation
      JOINT spine2
      {
        OFFSET 0 20.79997 -5.064912
        CHANNELS 3 Zrotation Xrotation Yrotation
        JOINT neck
        {
          OFFSET 0 14.38658 9.616178
          CHANNELS 3 Zrotation Xrotation Yrotation
          End Site
          {
            OFFSET 0 20 0
          }
        }
      }
      JOINT right_manubrium
      {
        OFFSET -5.722621 16.35077 3.967754
        CHANNELS 3 Zrotation Xrotation Yrotation
        JOINT right_clavicle
        {
          OFFSET -13.16364 1.694482 -4.693211
          CHANNELS 3 Zrotation Xrotation Yrotation
          JOINT right_humerus
          {
            OFFSET -28.5034 -0.3100689 -2.792744
            CHANNELS 3 Zrotation Xrotation Yrotation
            JOINT right_radius
            {
              OFFSET -25.15693 0.02248979 -1.271978
              CHANNELS 3 Zrotation Xrotation Yrotation
              End Site
              {
                OFFSET -15 0 0
              }
            }
          }
        }
      }
      JOINT left_manubrium
      {
        OFFSET 5.722621 16.35077 3.967754
        CHANNELS 3 Zrotation Xrotation Yrotation
        JOINT left_clavicle
        {
          OFFSET 13.16364 1.694482 -4.693211
          CHANNELS 3 Zrotation Xrotation Yrotation
          JOINT left_humerus
          {
            OFFSET 29.39168 -1.063119 -2.237045
            CHANNELS 3 Zrotation Xrotation Yrotation
            JOINT left_radius
            {
              OFFSET 24.59957 -0.9528479 0.9047498
              CHANNELS 3 Zrotation Xrotation Yrotation
              End Site
              {
                OFFSET 15 -0 -0
              }
            }
          }
        }
      }
    }
  }
}
MOTION
Frames: 16
Frame Time: 0.0416666666667
28.16584 105.4166 232.6051 1.845126 -6.029044 0.2515298 0.9521412 9.834753 6.697913 1.82853e-10 33.46417 -2.330479e-09 6.327906 -11.11453 -2.685226 -3.816986 -16.01582 -9.875079 -7.346849e-10 19.89291 9.102921e-10 -3.685883 -9.223666 19.77158 -1.782436 -0.6786585 8.42423 -1.014804 9.451098 -2.945652 2.77234 21.50146 5.605694 1.793192 -17.45501 8.585945 2.106471 -21.20203 10.74215 81.08767 24.35887 -6.521443 -4.099095e-10 6.161241e-10 24.84894 -23.01446 12.88644 12.88409 3.99634 -14.0359 -2.872235 -92.99892 21.83262 25.10934 -1.807693e-10 7.384437e-10 -11.74092 -0.2198683 7.247942 14.23915
29.33627 105.7405 238.8815 2.241184 -6.438938 0.6233671 0.1572789 8.515638 6.724057 3.729855e-10 40.17886 -2.500338e-09 6.402268 -8.918648 -3.276915 -5.040297 -12.87215 -10.99996 -1.287469e-09 21.20123 7.984273e-10 -3.415059 -9.541133 19.47274 -2.200156 -0.9217695 8.023297 -1.147774 9.424798 -3.030862 2.787608 21.75434 5.727858 1.808733 -17.25405 8.758531 2.379177 -20.30509 10.59373 81.56965 24.5538 -7.411494 -3.28592e-10 7.584687e-10 23.38527 -22.50478 12.63345 12.30317 3.784486 -13.92241 -3.003969 -91.95753 22.38951 23.93368 -1.905566e-10 8.034884e-10 -11.67135 -0.04929847 7.502244 14.08442
30.48956 106.4462 244.8968 2.456095 -7.125751 1.221944 -0.2925102 5.45515 6.629631 8.035446e-10 47.60815 -2.911759e-09 6.338531 -7.134562 -4.236043 -5.872922 -9.053147 -11.71926 -1.183817e-09 21.62588 1.314659e-10 -2.969027 -10.39057 19.25149 -2.526846 -0.7735963 7.298788 -1.201978 9.506432 -3.311707 2.755078 22.16075 5.891633 1.752718 -16.95199 8.979124 2.677782 -19.37222 10.55409 82.6126 24.88893 -8.567208 -2.608226e-10 1.128314e-09 21.6844 -22.05441 12.54389 11.72475 3.582398 -14.09673 -3.359531 -90.76666 23.00041 22.01931 -1.430248e-10 8.077081e-10 -12.19371 0.2689209 7.731989 13.79277
31.56187 107.3706 250.4944 2.318501 -7.780868 1.924154 -0.07755719 0.7432499 6.475082 1.248952e-09 53.08568 -3.213906e-09 5.824321 -6.662634 -5.340372 -6.058107 -4.715443 -12.04539 -3.566467e-10 21.23392 -1.269703e-09 -2.506583 -11.47185 19.01667 -2.568466 -0.3197856 6.269453 -1.034325 9.568318 -3.819471 2.658546 22.53567 6.000603 1.606504 -16.64868 9.141681 2.980124 -18.4452 10.57945 83.65603 25.37134 -9.912397 -2.511422e-10 1.540756e-09 19.79191 -21.16095 12.55738 10.95623 3.437402 -14.5499 -3.781319 -89.26406 23.66452 19.51786 2.430514e-11 6.540694e-10 -13.26437 0.7271455 8.062745 13.26889
32.5305 108.3007 255.7254 2.017541 -8.169782 2.678441 0.4786161 -4.669675 6.176114 1.500644e-09 55.4775 -3.293566e-09 5.049181 -6.815159 -6.345734 -5.864437 -0.4444318 -12.12063 7.621852e-10 19.93533 -2.640562e-09 -2.144976 -12.77415 18.67553 -2.449196 0.2407058 5.178282 -0.7343518 9.532054 -4.403913 2.56956 22.81709 6.057245 1.447007 -16.45771 9.266984 3.11847 -17.61242 10.57676 84.73999 25.79882 -11.30139 -2.047623e-10 1.859136e-09 17.99441 -20.17926 12.59669 10.23394 3.466199 -15.16691 -4.17233 -87.8211 24.1573 16.88426 2.206028e-10 4.236736e-10 -14.64165 1.291272 8.440721 12.54743
33.39811 108.9881 260.7612 1.80973 -8.202477 3.47848 0.9666459 -9.924057 5.708172 1.416282e-09 53.9249 -3.016456e-09 4.346181 -7.251976 -7.183325 -5.595358 3.392762 -12.07228 1.717258e-09 17.7987 -3.295848e-09 -1.925602 -14.34147 18.25979 -2.38296 0.7301255 4.250461 -0.3878661 9.329036 -4.952317 2.55916 22.99216 6.037889 1.304421 -16.3161 9.368585 2.989622 -16.84579 10.45486 85.82992 26.0588 -12.66867 -2.231904e-11 1.960481e-09 16.4398 -19.35678 12.6496 9.680797 3.779155 -15.85559 -4.432269 -86.54587 24.39497 14.23872 3.794984e-10 1.827655e-10 -16.24267 1.852438 8.780848 11.71763
34.1415 109.212 265.5488 1.802839 -7.982089 4.298725 1.218122 -14.88924 5.164186 1.252864e-09 48.95844 -2.427843e-09 3.597243 -7.934177 -7.804906 -5.451878 6.757587 -12.17085 2.685404e-09 15.38078 -3.383896e-09 -1.620005 -16.10881 17.96651 -2.48202 1.145853 3.52179 -0.01473754 9.025375 -5.428581 2.593494 23.05529 5.973574 1.230544 -16.18417 9.409687 2.736969 -16.06573 10.25499 86.48126 26.30291 -14.00557 3.255299e-11 1.734466e-09 14.96141 -18.42471 12.57771 9.107286 4.33502 -16.60631 -4.572754 -85.0972 24.51431 11.51242 5.145133e-10 -1.903329e-10 -17.97812 2.415384 9.190002 10.74233
34.80012 108.9671 270.5294 1.952949 -7.403529 5.115632 1.175936 -18.73718 4.343 8.674111e-10 41.71821 -1.825094e-09 3.225581 -8.345878 -8.306873 -5.446673 9.854875 -12.05177 2.668698e-09 13.48614 -2.478724e-09 -1.69728 -17.74354 17.4197 -2.706001 1.246731 3.046968 0.3192882 8.526278 -5.838319 2.728545 23.14173 5.837924 1.170626 -16.07381 9.448489 2.266844 -15.19778 9.901103 87.60045 26.40515 -15.47054 5.755843e-10 1.411569e-09 13.50436 -17.94693 12.60263 8.789514 5.089123 -17.32701 -4.478824 -84.09445 24.35449 8.826899 5.316501e-10 -2.900629e-10 -19.91959 2.950186 9.446161 9.803868
35.35123 108.2212 275.5637 2.207123 -6.835897 5.880848 0.992653 -21.96251 3.541349 7.649245e-10 33.81672 -1.302528e-09 2.694076 -9.037738 -8.643446 -5.558935 12.50774 -12.07375 2.507359e-09 12.39269 -1.412026e-09 -1.611165 -19.19249 17.10856 -3.02225 1.285498 2.697562 0.6412565 8.043536 -6.182999 2.844474 23.26094 5.69378 1.166961 -15.94466 9.416888 1.865432 -14.29612 9.579081 88.36429 26.63006 -16.89385 9.863085e-10 9.429083e-10 11.93866 -17.2784 12.46903 8.329517 5.863327 -18.07162 -4.32134 -82.94393 24.22015 6.116776 5.221284e-10 -4.523736e-10 -21.86264 3.548502 9.838452 8.748423
35.77923 107.1174 280.58 2.363235 -6.348922 6.530421 0.9261867 -24.44373 2.837615 8.727162e-10 26.94714 -8.989805e-10 1.879213 -9.91563 -8.813282 -5.614974 14.78599 -12.13359 2.061097e-09 12.47518 -4.800932e-10 -1.485867 -20.09069 16.88275 -3.237307 1.260604 2.364237 0.9483463 7.613604 -6.473105 2.903077 23.41757 5.548275 1.191038 -15.8546 9.308118 1.59651 -13.4105 9.328926 88.81721 26.95826 -18.16537 1.305686e-09 4.832674e-10 10.24553 -16.40665 12.18066 7.726917 6.477079 -18.75496 -4.136991 -81.72008 24.1167 3.608007 4.961185e-10 -6.123809e-10 -23.56852 4.261706 10.35713 7.59757
36.11491 105.9154 285.7812 2.259242 -5.964461 7.022135 1.199313 -25.68594 2.328993 9.556383e-10 22.2097 -6.753125e-10 0.9545922 -10.81361 -8.907076 -5.439183 16.64058 -12.0204 9.446728e-10 13.85131 4.206751e-10 -1.648953 -20.1118 16.53467 -3.188132 1.094809 2.023746 1.214528 7.222549 -6.69618 2.945881 23.61993 5.353528 1.173931 -15.83506 9.162996 1.395069 -12.65272 9.130302 89.34884 27.18851 -19.13808 1.818795e-09 1.97908e-10 8.674958 -15.59871 11.89825 7.162598 6.810103 -19.22713 -3.908614 -80.93289 24.01302 1.75349 4.508175e-10 -5.938626e-10 -24.66864 4.98768 10.86226 6.55074
36.40903 104.9592 291.3969 1.914001 -5.844598 7.376745 1.803321 -25.75675 2.202102 8.96737e-10 21.2531 -5.443512e-10 0.07739465 -11.1213 -9.105128 -5.107249 18.45616 -11.88835 -6.927973e-10 16.70597 1.189811e-09 -2.146698 -19.21431 16.1019 -2.878293 0.7874486 1.626546 1.407786 6.966682 -6.849546 3.011491 23.87021 5.129691 1.113376 -15.89801 9.054904 1.328836 -12.03597 9.000046 90.22465 27.22402 -19.86409 2.426846e-09 1.02513e-10 7.311307 -14.92798 11.71312 6.689559 6.764688 -19.39113 -3.707123 -80.86004 23.99978 0.8447195 4.208741e-10 -4.233219e-10 -24.73894 5.579434 11.2848 5.828636
36.67834 104.4843 297.3758 1.454077 -6.084053 7.57051 2.718482 -24.49192 2.578146 7.938799e-10 22.86098 -3.838781e-10 -0.8746719 -10.9761 -9.295664 -4.655996 19.46527 -11.82986 -2.344019e-09 21.11957 1.892431e-09 -2.628161 -17.53621 16.035 -2.397868 0.4824254 1.30189 1.527642 6.966065 -6.856805 3.088098 24.06808 4.889928 1.08538 -16.00437 8.920223 1.42717 -11.66604 8.993555 90.75325 27.15105 -20.09307 2.812085e-09 8.651108e-11 6.343214 -14.26983 11.51128 6.255975 6.396373 -19.26757 -3.578349 -81.25792 24.0727 1.001503 3.980061e-10 -2.448271e-10 -23.59604 5.970879 11.66662 5.40495
36.91191 104.6129 303.6048 0.9367428 -6.593095 7.531752 3.923954 -22.07128 3.336263 5.647798e-10 25.02697 -1.494557e-10 -1.925468 -10.8185 -9.409036 -4.090883 19.24056 -11.76601 -3.719186e-09 27.44577 2.47532e-09 -3.155561 -15.30652 16.36189 -1.78077 0.2911949 1.16063 1.606583 7.165982 -6.703102 3.188167 24.24994 4.632703 1.117768 -16.17377 8.747677 1.628875 -11.5314 9.114941 90.9214 27.04587 -19.896 3.002579e-09 1.053463e-10 5.802354 -13.59855 11.27558 5.85218 5.856298 -18.95503 -3.471014 -82.19063 24.25296 2.070626 3.771409e-10 -6.838856e-11 -21.60942 6.150089 12.02749 5.256163
37.09092 105.2704 309.8428 0.661763 -7.420236 7.253851 4.928768 -18.34593 4.180058 4.159576e-10 26.81524 -3.343161e-11 -2.870006 -10.98396 -9.399698 -3.643561 17.00321 -11.63751 -4.725295e-09 34.80961 3.280478e-09 -3.500807 -13.1027 17.32798 -1.319329 0.3590141 1.375968 1.561259 7.534807 -6.319142 3.336263 24.58032 4.383926 1.225182 -16.27845 8.577433 1.816812 -11.68751 9.361916 90.84866 26.98607 -19.18197 3.088348e-09 1.649615e-10 5.901412 -13.21611 11.00132 5.622507 5.319535 -18.55127 -3.397923 -83.72588 24.57004 3.77731 3.07168e-10 8.555065e-11 -19.18101 6.093042 12.36874 5.377901
37.13636 106.1385 315.4586 0.7585648 -8.454423 6.767844 5.393898 -14.31874 4.958492 6.614678e-10 27.06903 6.376262e-11 -3.844128 -11.83839 -9.13249 -3.426566 12.75044 -11.70403 -4.10045e-09 40.9782 3.329265e-09 -3.26072 -11.52786 18.90216 -1.190725 0.8365999 1.903929 1.40698 8.031864 -5.721647 3.444849 24.88857 4.207231 1.423687 -16.23299 8.371176 1.99688 -12.15264 9.715597 89.6498 27.10352 -17.81501 2.572298e-09 9.560331e-11 6.664132 -12.83519 10.50868 5.463747 4.918341 -18.15296 -3.435416 -84.90206 24.9857 5.657729 2.768465e-10 -1.321202e-10 -16.71224 5.876009 12.77648 5.549438
